<svg xmlns="http://www.w3.org/2000/svg" xmlns:xlink="http://www.w3.org/1999/xlink" preserveAspectRatio="none" width="670" height="250"><defs><path d="M315.75 210.25q-.55 0-.95-.15-.4-.1-.75-.4-.3-.25-.55-.7-.3-.45-.6-1.15L306.6 193l-6.1 14.6q-.3.8-.6 1.25-.35.5-.7.85-.35.3-.8.45-.5.1-1.05.15v.6h5.75v-.65h-.2q-.9 0-1.3-.2-.4-.25-.4-.75 0-.25.05-.5.1-.25.35-.85l1.15-2.7h6.2l1.25 3q.2.5.25.65v.4q0 1-1.5 1-.1 0-.15-.05h-.2v.65h7.15v-.65m-7.2-5.95h-5.45l2.75-6.5 2.7 6.5M116.15 42.45q-8.95-3.5-20.5-3.6-2.05 0-4.1.1-2.15.05-4.2.05-2.15.15-4.2.25-2.05.05-4.2.05h-28.3v2.15h16.7v102.9h-16.7v2.15H99.1v-2.15H82.4v-49.7q2.65.55 5.9.9 3.25.35 5.35.35 11.25-.05 20.75-3.35 9.5-3.4 15.2-9.7 5.8-6.4 5.95-15.4-.15-8.6-5.25-15-5.15-6.45-14.15-10m-25-1.45q9.65-.05 15.7 2.3 5.95 2.35 8.65 8.15 2.8 5.8 2.7 16-.05 13.25-6.25 19.8-6.25 6.55-17.35 6.55-2.55 0-5.85-.3t-6.35-.9V41.45q1.25-.15 3.6-.3 2.3-.15 5.15-.15M267 194.85q.3.35.4.9.1.6.1 1.5v10q0 .9-.1 1.5-.1.55-.4.9-.25.3-.75.45-.5.15-1.25.15v.65h7.65v-.65h-.3q-.7-.05-1.15-.2-.4-.15-.65-.5-.3-.35-.4-.9-.05-.55-.05-1.4v-4.65q1.1.3 1.8.35.7.1 1.35.1 2.3 0 3.65-1.3 1.3-1.25 1.3-3.5 0-1.15-.5-2.1-.45-1-1.4-1.6-.4-.25-.85-.45-.45-.2-1-.35-.55-.1-1.25-.15h-8.25v.65q.75 0 1.25.15.5.1.8.45m3.1.3q0-.55 1.55-.55 1.7 0 2.65 1 1 1 1 2.7 0 1.7-.9 2.75-.9 1-2.3 1-.9 0-1.45-.2-.55-.2-.55-.55v-6.15m-89.75-153.7h16.7V39.3H148.6v2.15h16.7v102.9h-16.7v2.15h48.45v-2.15h-16.7V41.45m82.3 0q8.2 0 13.45 2.7 5.2 2.75 8.5 8.05 3.35 5.35 5.75 13.15h1.7V39.3h-86.1v2.15h16.7v102.9h-16.7v2.15h91.85v-33h-1.7q-.4 3.6-2.05 8.75-1.7 5.05-5.15 10.15-3.4 5.05-9 8.45-5.55 3.35-13.8 3.5h-28.4v-54.3h12.15q7.15.05 10.9 3.2 3.8 3.25 5.65 8.35 1.75 5.15 3 11h1.7V65.8h-1.7q-2.05 8.95-4.65 13.75-2.55 4.85-6.6 6.65-4.05 1.8-10.65 1.7h-9.8V41.45h24.95m139.95 153.3q.5-.25 1.1-.25 1.65 0 2.65 1.2 1 1.15 1.15 3.15l.65.05.05-5.7h-.65q-.15.8-.85.8-.3 0-.6-.1l-.35-.15-.3-.05-.3-.1q-.9-.2-1.8-.2-1.05 0-1.95.35-.9.35-1.55.95-.65.65-1.05 1.45-.35.85-.35 1.85t.45 1.9q.15.3.35.6l.5.5q.3.3.65.55.35.25.9.6l3.05 1.85q1.25.75 1.7 1.4.5.65.5 1.55 0 .65-.25 1.2-.25.55-.7.95-.45.4-1.05.65-.65.2-1.35.2-.9 0-1.7-.3-.8-.35-1.35-.9-.55-.6-.9-1.45-.35-.8-.35-1.85h-.7l-.1 5.65h.7q.1-.4.3-.6.2-.15.6-.15.2 0 .6.1l.2.1q.15.05.25.05.05 0 .1.05.6.15 1 .3.4.1.65.15.3.05.55.05h.6q1.2 0 2.2-.35 1-.35 1.7-1t1.1-1.55q.4-.85.4-1.95 0-.75-.2-1.5-.25-.75-.75-1.4-.4-.5-1.05-1t-1.9-1.2l-2.4-1.45q-.9-.5-1.4-1.2-.5-.65-.5-1.35 0-.55.2-1.05.25-.5.65-.85.35-.35.9-.55m-32.35-1.15v.65q.75.05 1.25.15.5.15.75.5.3.3.4.9.15.55.15 1.45v10q0 .9-.1 1.5-.1.55-.4.9-.3.3-.8.45-.5.15-1.25.15v.65h7.7v-.65h-.3q-.7-.05-1.15-.2-.4-.15-.65-.5-.3-.35-.4-.9-.05-.55-.05-1.4v-10q0-.9.1-1.45.1-.55.35-.9.25-.3.7-.45.45-.15 1.1-.2h.3v-.65h-7.7m-33.75 1.25q.3.35.4.9.15.6.15 1.5v10q0 .9-.1 1.5-.1.55-.4.9-.3.3-.8.45-.45.15-1.2.15v.65h7.65v-.65h-.3q-.7-.05-1.15-.25-.45-.15-.7-.45-.25-.35-.35-.9-.1-.55-.1-1.4v-4.35h1.6l5.9 8h4.75v-.65h-.15q-.65-.05-1.1-.2-.45-.1-.9-.4-.4-.25-.85-.75-.45-.45-1-1.2l-3.8-5.3q1.85-.45 2.85-1.6 1-1.15 1-2.7 0-1.4-.7-2.45-.65-1.1-1.9-1.55-.7-.25-1.6-.4-.9-.1-2-.1h-7.2v.65q.75 0 1.25.15.5.1.75.45m3.1.35q0-.7 1.9-.7 1.55 0 2.5 1.05.95 1 .95 2.65 0 1.7-1.2 2.7-1.15 1.05-3.2 1.05-.6 0-.75-.05-.2-.1-.2-.3v-6.4m43.35-149.7q-5.8-4.4-12.6-5.6-6.95-1.2-15.7-1.05-1.75 0-3.6.1-1.75.05-3.6.05-1.75.15-3.6.25-1.85.05-3.6.05h-28.6v2.15h16.7v102.9h-16.7v2.15h48.45v-2.15h-16.7v-54.3h15.1q3.6-.25 8.2.85 4.75 1.05 8.5 5.45t4.6 14.25l1.05 13.75q.6 7.65 2.55 12.8 2 5.15 6.55 7.8 4.5 2.65 12.45 2.65 6.15-.05 8.95-1.3 2.85-1.25 4.25-2.6l-1.3-1.7q-1.8 1.65-3.85 2.35-2.05.85-4.05.85-4.25-.15-6.3-3.2-2.05-2.95-2.85-7.05-.7-3.6-.95-8.9-.3-5.2-.7-10.55-.45-5.45-1.55-9.5-1.5-5.1-5.05-8.4-3.55-3.3-7.95-5.15-4.35-1.9-8.35-2.8-4.05-.85-6.55-1.15v-.3Q374.8 87 380.1 84q5.3-2.95 8-6.7 2.75-3.75 3.6-7.2.95-3.5.9-5.8.05-4.6-2.2-9.6-2.3-5-7.45-9.2m-39.55-4.05q2-.25 4.7-.35 2.75-.1 5.55-.1 5.35-.15 10.5 1.4 5.05 1.6 8.45 6.7 3.3 5.15 3.45 15.5 0 9.2-2.4 14.25-2.35 5.1-6.55 7.15-4.25 2-9.85 1.9H343.4V41.45M488.2 84q5.3-2.95 8-6.7 2.75-3.75 3.6-7.2.95-3.5.9-5.8.05-4.6-2.2-9.6-2.3-5-7.45-9.2-5.8-4.4-12.6-5.6-6.95-1.2-15.7-1.05-1.75 0-3.6.1-1.75.05-3.6.05-1.75.15-3.6.25-1.85.05-3.6.05h-28.6v2.15h16.7v102.9h-16.7v2.15h48.45v-2.15h-16.7v-54.3h15.1q3.6-.25 8.2.85 4.75 1.05 8.5 5.45t4.6 14.25l1.05 13.75q.6 7.65 2.55 12.8 2 5.15 6.55 7.8 4.5 2.65 12.45 2.65 6.15-.05 8.95-1.3 2.85-1.25 4.25-2.6l-1.3-1.7q-1.8 1.65-3.85 2.35-2.05.85-4.05.85-4.25-.15-6.3-3.2-2.05-2.95-2.85-7.05-.7-3.6-.95-8.9-.3-5.2-.7-10.55-.45-5.45-1.55-9.5-1.5-5.1-5.05-8.4-3.55-3.3-7.95-5.15-4.35-1.9-8.35-2.8-4.05-.85-6.55-1.15v-.3Q482.9 87 488.2 84m-36.7-42.55q2-.25 4.7-.35 2.75-.1 5.55-.1 5.35-.15 10.5 1.4 5.05 1.6 8.45 6.7 3.3 5.15 3.45 15.5 0 9.2-2.4 14.25-2.35 5.1-6.55 7.15-4.25 2-9.85 1.9H451.5V41.45m132.7 0q8.2 0 13.45 2.7 5.2 2.75 8.5 8.05 3.35 5.35 5.75 13.15h1.7V39.3h-86.1v2.15h16.7v102.9h-16.7v2.15h91.85v-33h-1.7q-.4 3.6-2.05 8.75-1.7 5.05-5.15 10.15-3.4 5.05-9 8.45-5.55 3.35-13.8 3.5h-28.4v-54.3h12.15q7.15.05 10.9 3.2 3.8 3.25 5.65 8.35 1.75 5.15 3 11h1.7V65.8h-1.7q-2.05 8.95-4.65 13.75-2.55 4.85-6.6 6.65-4.05 1.8-10.65 1.7h-9.8V41.45h24.95z" id="Layer0_0_FILL"/></defs><use xlink:href="#Layer0_0_FILL"/></svg>