<svg xmlns="http://www.w3.org/2000/svg" width="20pt" height="20pt" viewBox="0 0 20 20" class="svg replaced-svg"><g id="surface1"><path d="M18.602 11.207l-.52-2.07a.314.314 0 00.246-.305v-.336c0-.726-.59-1.316-1.312-1.316h-2.36v-.688a.65.65 0 00-.648-.648H9.62l2.668-1.067a.31.31 0 00.172-.406.31.31 0 00-.406-.172L9.87 5.07c.668-.425 1.324-.894 1.574-1.226a1.46 1.46 0 00-.273-2.043 1.462 1.462 0 00-2.047.277c-.355.465-.824 1.777-1.129 2.703-.305-.926-.773-2.238-1.133-2.703a1.457 1.457 0 10-2.316 1.766c.25.332.906.8 1.574 1.226L3.937 4.2a.31.31 0 00-.406.171.31.31 0 00.172.406l2.668 1.067H1.984a.65.65 0 00-.648.648v5.68a.312.312 0 00.625 0v-5.68c0-.012.012-.02.023-.02h12.024c.012 0 .02.008.02.02v5.68a.314.314 0 00.628 0v-.356h3.696c.453 0 .84.297.972.711h-.972a.313.313 0 00-.313.313v.668c0 .539.438.98.98.98h.356v1.38h-.82a1.987 1.987 0 00-1.875-1.337c-.867 0-1.606.559-1.875 1.336h-.149v-2.36a.314.314 0 00-.629 0v2.36H7.531a1.987 1.987 0 00-1.875-1.336c-.867 0-1.605.559-1.87 1.336H1.983a.025.025 0 01-.023-.023v-.688h1.36c.171 0 .312-.14.312-.312a.313.313 0 00-.313-.313H.313a.313.313 0 00-.313.313c0 .172.14.312.313.312h1.023v.688c0 .36.289.648.648.648h1.692v.02c0 1.093.886 1.984 1.98 1.984 1.094 0 1.985-.89 1.985-1.984v-.02h7.058c0 .008-.004.016-.004.02 0 1.093.89 1.984 1.985 1.984 1.093 0 1.984-.89 1.984-1.984v-.02h1.023c.172 0 .313-.14.313-.312v-3.34c0-.824-.61-1.512-1.398-1.633zM6.754 4.73C5.52 3.96 5.152 3.61 5.043 3.465a.833.833 0 011.324-1.008c.305.398.778 1.734 1.09 2.695-.21-.12-.453-.27-.703-.422zm1.781.422c.313-.96.785-2.297 1.09-2.695a.83.83 0 011.164-.156.83.83 0 01.16 1.164c-.11.144-.476.496-1.71 1.265-.25.153-.493.301-.704.422zm6.121 2.657h2.36c.379 0 .687.308.687.687v.02h-3.047zm0 3.382V9.145h2.781l.512 2.046zm-9 6.68a1.36 1.36 0 01-1.355-1.36c0-.745.61-1.355 1.355-1.355.75 0 1.36.61 1.36 1.356 0 .75-.61 1.36-1.36 1.36zm11.024 0a1.36 1.36 0 01-1.356-1.36c0-.745.61-1.355 1.356-1.355.75 0 1.36.61 1.36 1.356 0 .75-.61 1.36-1.36 1.36zm2.695-4.008h-.355a.357.357 0 01-.356-.355v-.356h.711zm0 0"/><path d="M5.656 15.867a.646.646 0 10.003 1.294.646.646 0 00-.003-1.294zm11.024 0a.646.646 0 10.003 1.294.646.646 0 00-.003-1.294zm-3.672-1.336h-4.68a.313.313 0 00-.312.313c0 .172.14.312.312.312h4.68c.172 0 .312-.14.312-.312a.313.313 0 00-.312-.313zm-8.02-1.336H.98a.313.313 0 00-.312.313c0 .172.14.312.312.312h4.008c.176 0 .317-.14.317-.312a.314.314 0 00-.317-.313zm0-4.679H3.652a.314.314 0 00-.312.316v2.672c0 .172.14.312.312.312a.31.31 0 00.313-.312V10.48h.691a.314.314 0 000-.629h-.691v-.706h1.023a.315.315 0 00.317-.313.318.318 0 00-.317-.316zm2.465 2.109c.313-.203.524-.559.524-.96a1.15 1.15 0 00-1.149-1.15h-.836a.314.314 0 00-.312.317v2.672a.312.312 0 00.625 0v-.691h.52l.577.863c.059.09.16.14.258.14a.292.292 0 00.176-.054.31.31 0 00.086-.434zm-.625-.438h-.523V9.146h.523a.522.522 0 010 1.043zM10 11.191H8.977v-.71h.687a.314.314 0 00.316-.313.312.312 0 00-.316-.313h-.688v-.71H10a.314.314 0 000-.629H8.664a.314.314 0 00-.312.316v2.672c0 .172.14.312.312.312H10c.172 0 .313-.14.313-.312A.31.31 0 0010 11.19zm2.34 0h-1.024v-.71h.356a.313.313 0 00.312-.313.31.31 0 00-.312-.313h-.356v-.71h1.024a.314.314 0 000-.629h-1.336a.315.315 0 00-.316.316v2.672c0 .172.14.312.316.312h1.336c.172 0 .312-.14.312-.312a.31.31 0 00-.312-.313zm0 0"/></g></svg>