<svg version="1.1" id="Capa_1" xmlns="http://www.w3.org/2000/svg" viewBox="0 0 183.012 183.012" xml:space="preserve"><g fill="#010002"><path d="M140.148 0h-97.28C36.4 0 31.147 5.261 31.147 11.728v128.545c0 6.46 5.257 11.714 11.721 11.714h33.827l2.044-6.514H42.867a5.208 5.208 0 01-5.207-5.2V11.728a5.213 5.213 0 015.207-5.214h97.28c2.867 0 5.2 2.337 5.2 5.214v128.545c0 2.867-2.333 5.2-5.2 5.2H137.9l2.459 6.514c6.363-.111 11.506-5.325 11.506-11.714V11.728C151.861 5.257 146.608 0 140.148 0zm10.149 140.273c0 5.132-3.897 9.445-8.883 10.071l-1.249-3.3a6.783 6.783 0 006.75-6.775V11.728c0-3.74-3.035-6.786-6.768-6.786h-97.28c-3.733 0-6.775 3.046-6.775 6.786v128.545c0 3.733 3.042 6.775 6.775 6.775h33.738l-1.059 3.375H42.867c-5.597 0-10.157-4.549-10.157-10.15V11.728c0-5.604 4.556-10.164 10.157-10.164h97.28c5.594 0 10.15 4.556 10.15 10.164v128.545z"/><path d="M106.961 94.965c-12.258 0-22.225 9.974-22.225 22.235 0 12.254 9.967 22.228 22.225 22.228s22.232-9.974 22.232-22.228c0-12.261-9.974-22.235-22.232-22.235zm0 42.896c-11.391 0-20.657-9.269-20.657-20.661s9.269-20.668 20.657-20.668 20.657 9.276 20.657 20.668-9.265 20.661-20.657 20.661z"/><path d="M129.082 140.649l.655-.601c2.763-2.766 4.008-6.607 3.414-10.515l-.032-.225.086-.204a27.27 27.27 0 001.485-4.649l.047-.225.168-.154a12.208 12.208 0 003.607-8.697c0-4.423-2.319-8.396-6.22-10.618l-.186-.111-.107-.197c-.179-.322-.376-.63-.58-.938l-.183-.279-.079-.351c.014-3.271-1.26-6.352-3.586-8.682-2.144-2.151-5.032-3.411-8.128-3.543l-.422-.021-.218-.361c-2.255-3.758-6.181-6.002-10.497-6.002-4.359 0-8.296 2.258-10.529 6.045l-.326.551-.605-.211c-4.32-1.478-9.448-.293-12.648 2.902-3.131 3.131-4.298 7.766-3.042 12.086l.082.286-.544 1.167-.193.14c-3.221 2.348-5.071 5.955-5.071 9.899 0 3.514 1.482 6.768 4.173 9.144l.168.147.064.218c.243.812.537 1.621.891 2.466l.079.197-.032.218c-.58 3.93.662 7.759 3.421 10.518a11.857 11.857 0 002.548 1.929l.54.315-7.73 24.726c-.1.322.014.673.283.866a.79.79 0 00.909.021l9.853-6.682 4.234 12.379c.107.322.408.53.744.53h.007a.78.78 0 00.741-.544l7.773-24.766.709.175c2.401.58 4.871.412 7.172-.49l.737-.293 13.048 34.285a.78.78 0 00.73.512h.025a.791.791 0 00.727-.558l3.93-12.93 9.326 5.411a.785.785 0 001.124-.955l-12.542-33.331zm2.015 27.009a.785.785 0 00-1.141.455l-3.543 11.689-12.515-32.886a.768.768 0 00-.415-.433.701.701 0 00-.315-.072.776.776 0 00-.286.057l-1.478.58c-1.997.784-4.13.93-6.227.426l-1.421-.344a.786.786 0 00-.934.523l-7.276 23.18-3.79-11.094c-.079-.229-.261-.412-.494-.49s-.494-.043-.691.097l-8.843 5.998 7.247-23.187a.78.78 0 00-.358-.916l-1.092-.63a10.514 10.514 0 01-2.215-1.671c-2.405-2.412-3.497-5.751-2.981-9.176l.068-.433a.79.79 0 00-.05-.426l-.172-.397a22.928 22.928 0 01-.834-2.312l-.125-.426a.808.808 0 00-.229-.358l-.34-.301c-2.348-2.076-3.647-4.907-3.647-7.97 0-3.432 1.614-6.585 4.431-8.625l.354-.258a.774.774 0 00.247-.308l.755-1.621a.769.769 0 00.043-.544l-.161-.565c-1.102-3.776-.082-7.816 2.641-10.547 2.781-2.777 7.269-3.804 11.03-2.52l1.21.412a.793.793 0 00.93-.347l.648-1.099c1.954-3.303 5.386-5.279 9.18-5.279 3.758 0 7.179 1.961 9.158 5.243l.433.727a.771.771 0 00.637.376l.837.036c2.709.118 5.222 1.217 7.09 3.089 2.029 2.026 3.142 4.71 3.139 7.716l.132.676a.736.736 0 00.115.279l.251.39c.183.279.365.551.519.837l.215.383a.866.866 0 00.304.315l.379.218c3.393 1.943 5.429 5.404 5.429 9.255a10.61 10.61 0 01-3.153 7.584l-.326.315a.84.84 0 00-.208.383l-.104.44c-.361 1.593-.83 3.067-1.399 4.384l-.168.415a.754.754 0 00-.054.426l.072.44c.515 3.418-.569 6.76-2.956 9.151l-1.016.938a.796.796 0 00-.208.852l11.961 31.762-8.29-4.812zM59.778 26.659h63.525v3.135H59.778zm0 16.466h63.525v3.139H59.778z"/></g></svg>