<svg xmlns="http://www.w3.org/2000/svg" version="1.1" id="Layer_1" x="0" y="0" viewBox="0 0 475 475" xml:space="preserve" class="svg replaced-svg"><path d="M432.5 540.36h-390c-4.1 0-7.5 3.4-7.5 7.5v460c0 4.1 3.4 7.5 7.5 7.5h390c4.1 0 7.5-3.4 7.5-7.5v-460c0-4.1-3.4-7.5-7.5-7.5zm-7.5 460H50v-445h375v445z" transform="translate(0 -540.36)"/><path d="M89.3 774.86h296.4c4.1 0 7.5-3.4 7.5-7.5s-3.4-7.5-7.5-7.5H89.3c-4.1 0-7.5 3.4-7.5 7.5s3.4 7.5 7.5 7.5zm0 41.9h296.4c4.1 0 7.5-3.4 7.5-7.5s-3.4-7.5-7.5-7.5H89.3c-4.1 0-7.5 3.4-7.5 7.5s3.4 7.5 7.5 7.5zm0 41.1h296.4c4.1 0 7.5-3.4 7.5-7.5s-3.4-7.5-7.5-7.5H89.3c-4.1 0-7.5 3.4-7.5 7.5s3.4 7.5 7.5 7.5zm0 41.1h296.4c4.1 0 7.5-3.4 7.5-7.5s-3.4-7.5-7.5-7.5H89.3c-4.1 0-7.5 3.4-7.5 7.5s3.4 7.5 7.5 7.5zm228.6 26.9H157.2c-4.1 0-7.5 3.4-7.5 7.5s3.4 7.5 7.5 7.5h160.6c4.2 0 7.6-3.4 7.6-7.5s-3.4-7.5-7.5-7.5zm-146.3-216.2l39 20.9c1.1.6 2.3.9 3.5.9.8 0 1.6-.1 2.4-.4 2-.6 3.6-2.1 4.4-3.9l16.6-35.3 16.6 35.3c.9 1.9 2.5 3.3 4.4 3.9 2 .6 4.1.5 5.9-.5l39-20.9c3.6-2 5-6.4 3.2-10l-23.4-46.5c-.1-.1-.1-.2-.2-.4 4.1-7.4 6.5-15.9 6.5-25 0-28.1-23.3-50.9-52-50.9s-52 22.9-52 50.9c0 9 2.4 17.6 6.5 25-.1.1-.1.2-.2.4l-23.4 46.5c-1.8 3.6-.4 8.1 3.2 10zm118.3-9.9l-25.6 13.8-16.6-35.1c9.5-1.9 18.1-6.4 25-12.8l17.2 34.1zm-52.4-107.9c20.4 0 37 16.1 37 35.9 0 20.2-16.6 36.7-37 36.7s-37-16.5-37-36.7c0-19.8 16.6-35.9 37-35.9zm-35.2 73.8c6.9 6.3 15.5 10.8 25 12.8l-16.6 35.1-25.6-13.8 17.2-34.1z" transform="translate(0 -540.36)"/></svg>