<svg xmlns="http://www.w3.org/2000/svg" xmlns:xlink="http://www.w3.org/1999/xlink" width="20pt" height="20pt" viewBox="0 0 20 20" version="1.1" class="svg replaced-svg">
<g id="surface1">
<path style=" stroke:none;fill-rule:nonzero;fill:rgb(0%,0%,0%);fill-opacity:1;" d="M 18.601562 11.207031 L 18.082031 9.136719 C 18.222656 9.105469 18.328125 8.980469 18.328125 8.832031 L 18.328125 8.496094 C 18.328125 7.769531 17.738281 7.179688 17.015625 7.179688 L 14.65625 7.179688 L 14.65625 6.492188 C 14.65625 6.136719 14.367188 5.84375 14.007812 5.84375 L 9.621094 5.84375 L 12.289062 4.777344 C 12.449219 4.714844 12.527344 4.53125 12.460938 4.371094 C 12.398438 4.210938 12.214844 4.132812 12.054688 4.199219 L 9.871094 5.070312 C 10.539062 4.644531 11.195312 4.175781 11.445312 3.84375 C 11.933594 3.207031 11.808594 2.289062 11.171875 1.800781 C 10.53125 1.3125 9.613281 1.4375 9.125 2.078125 C 8.769531 2.542969 8.300781 3.855469 7.996094 4.78125 C 7.691406 3.855469 7.222656 2.542969 6.863281 2.078125 C 6.378906 1.4375 5.460938 1.3125 4.820312 1.800781 C 4.179688 2.289062 4.058594 3.207031 4.546875 3.84375 C 4.796875 4.175781 5.453125 4.644531 6.121094 5.070312 L 3.9375 4.199219 C 3.777344 4.132812 3.59375 4.210938 3.53125 4.371094 C 3.464844 4.53125 3.542969 4.714844 3.703125 4.777344 L 6.371094 5.84375 L 1.984375 5.84375 C 1.625 5.84375 1.335938 6.136719 1.335938 6.492188 L 1.335938 12.171875 C 1.335938 12.34375 1.476562 12.484375 1.648438 12.484375 C 1.820312 12.484375 1.960938 12.34375 1.960938 12.171875 L 1.960938 6.492188 C 1.960938 6.480469 1.972656 6.472656 1.984375 6.472656 L 14.007812 6.472656 C 14.019531 6.472656 14.027344 6.480469 14.027344 6.492188 L 14.027344 12.171875 C 14.027344 12.34375 14.167969 12.484375 14.34375 12.484375 C 14.515625 12.484375 14.65625 12.34375 14.65625 12.171875 L 14.65625 11.816406 L 18.347656 11.816406 C 18.351562 11.816406 18.351562 11.816406 18.351562 11.816406 C 18.804688 11.816406 19.191406 12.113281 19.324219 12.527344 L 18.351562 12.527344 C 18.179688 12.527344 18.039062 12.667969 18.039062 12.839844 L 18.039062 13.507812 C 18.039062 14.046875 18.476562 14.488281 19.019531 14.488281 L 19.375 14.488281 L 19.375 15.867188 L 18.554688 15.867188 C 18.285156 15.089844 17.546875 14.53125 16.679688 14.53125 C 15.8125 14.53125 15.074219 15.089844 14.804688 15.867188 L 14.65625 15.867188 L 14.65625 13.507812 C 14.65625 13.335938 14.515625 13.195312 14.34375 13.195312 C 14.167969 13.195312 14.027344 13.335938 14.027344 13.507812 L 14.027344 15.867188 L 7.53125 15.867188 C 7.261719 15.089844 6.523438 14.53125 5.65625 14.53125 C 4.789062 14.53125 4.050781 15.089844 3.785156 15.867188 L 1.984375 15.867188 C 1.972656 15.867188 1.960938 15.855469 1.960938 15.84375 L 1.960938 15.15625 L 3.320312 15.15625 C 3.492188 15.15625 3.632812 15.015625 3.632812 14.84375 C 3.632812 14.671875 3.492188 14.53125 3.320312 14.53125 L 0.3125 14.53125 C 0.140625 14.53125 0 14.671875 0 14.84375 C 0 15.015625 0.140625 15.15625 0.3125 15.15625 L 1.335938 15.15625 L 1.335938 15.84375 C 1.335938 16.203125 1.625 16.492188 1.984375 16.492188 L 3.675781 16.492188 C 3.675781 16.5 3.675781 16.507812 3.675781 16.511719 C 3.675781 17.605469 4.5625 18.496094 5.65625 18.496094 C 6.75 18.496094 7.640625 17.605469 7.640625 16.511719 C 7.640625 16.507812 7.640625 16.5 7.640625 16.492188 L 14.699219 16.492188 C 14.699219 16.5 14.695312 16.507812 14.695312 16.511719 C 14.695312 17.605469 15.585938 18.496094 16.679688 18.496094 C 17.773438 18.496094 18.664062 17.605469 18.664062 16.511719 C 18.664062 16.507812 18.664062 16.5 18.664062 16.492188 L 19.6875 16.492188 C 19.859375 16.492188 20 16.351562 20 16.179688 L 20 12.839844 C 20 12.015625 19.390625 11.328125 18.601562 11.207031 Z M 6.753906 4.730469 C 5.519531 3.960938 5.152344 3.609375 5.042969 3.464844 C 4.765625 3.101562 4.835938 2.578125 5.199219 2.300781 C 5.351562 2.183594 5.527344 2.128906 5.703125 2.128906 C 5.957031 2.128906 6.203125 2.242188 6.367188 2.457031 C 6.671875 2.855469 7.144531 4.191406 7.457031 5.152344 C 7.246094 5.03125 7.003906 4.882812 6.753906 4.730469 Z M 8.535156 5.152344 C 8.847656 4.191406 9.320312 2.855469 9.625 2.457031 C 9.902344 2.09375 10.425781 2.019531 10.789062 2.300781 C 11.15625 2.578125 11.226562 3.101562 10.949219 3.464844 C 10.839844 3.609375 10.472656 3.960938 9.238281 4.730469 C 8.988281 4.882812 8.746094 5.03125 8.535156 5.152344 Z M 14.65625 7.808594 L 17.015625 7.808594 C 17.394531 7.808594 17.703125 8.117188 17.703125 8.496094 L 17.703125 8.515625 L 14.65625 8.515625 Z M 14.65625 11.191406 L 14.65625 9.144531 L 17.4375 9.144531 L 17.949219 11.191406 Z M 5.65625 17.871094 C 4.910156 17.871094 4.300781 17.261719 4.300781 16.511719 C 4.300781 15.765625 4.910156 15.15625 5.65625 15.15625 C 6.40625 15.15625 7.015625 15.765625 7.015625 16.511719 C 7.015625 17.261719 6.40625 17.871094 5.65625 17.871094 Z M 16.679688 17.871094 C 15.933594 17.871094 15.324219 17.261719 15.324219 16.511719 C 15.324219 15.765625 15.933594 15.15625 16.679688 15.15625 C 17.429688 15.15625 18.039062 15.765625 18.039062 16.511719 C 18.039062 17.261719 17.429688 17.871094 16.679688 17.871094 Z M 19.375 13.863281 L 19.019531 13.863281 C 18.824219 13.863281 18.664062 13.703125 18.664062 13.507812 L 18.664062 13.152344 L 19.375 13.152344 Z M 19.375 13.863281 "></path>
<path style=" stroke:none;fill-rule:nonzero;fill:rgb(0%,0%,0%);fill-opacity:1;" d="M 5.65625 15.867188 C 5.300781 15.867188 5.011719 16.15625 5.011719 16.511719 C 5.011719 16.871094 5.300781 17.160156 5.65625 17.160156 C 6.015625 17.160156 6.304688 16.871094 6.304688 16.511719 C 6.304688 16.15625 6.015625 15.867188 5.65625 15.867188 Z M 5.65625 15.867188 "></path>
<path style=" stroke:none;fill-rule:nonzero;fill:rgb(0%,0%,0%);fill-opacity:1;" d="M 16.679688 15.867188 C 16.324219 15.867188 16.035156 16.15625 16.035156 16.511719 C 16.035156 16.871094 16.324219 17.160156 16.679688 17.160156 C 17.039062 17.160156 17.328125 16.871094 17.328125 16.511719 C 17.328125 16.15625 17.039062 15.867188 16.679688 15.867188 Z M 16.679688 15.867188 "></path>
<path style=" stroke:none;fill-rule:nonzero;fill:rgb(0%,0%,0%);fill-opacity:1;" d="M 13.007812 14.53125 L 8.328125 14.53125 C 8.15625 14.53125 8.015625 14.671875 8.015625 14.84375 C 8.015625 15.015625 8.15625 15.15625 8.328125 15.15625 L 13.007812 15.15625 C 13.179688 15.15625 13.320312 15.015625 13.320312 14.84375 C 13.320312 14.671875 13.179688 14.53125 13.007812 14.53125 Z M 13.007812 14.53125 "></path>
<path style=" stroke:none;fill-rule:nonzero;fill:rgb(0%,0%,0%);fill-opacity:1;" d="M 4.988281 13.195312 L 0.980469 13.195312 C 0.808594 13.195312 0.667969 13.335938 0.667969 13.507812 C 0.667969 13.679688 0.808594 13.820312 0.980469 13.820312 L 4.988281 13.820312 C 5.164062 13.820312 5.304688 13.679688 5.304688 13.507812 C 5.304688 13.335938 5.164062 13.195312 4.988281 13.195312 Z M 4.988281 13.195312 "></path>
<path style=" stroke:none;fill-rule:nonzero;fill:rgb(0%,0%,0%);fill-opacity:1;" d="M 4.988281 8.515625 L 3.652344 8.515625 C 3.480469 8.515625 3.339844 8.65625 3.339844 8.832031 L 3.339844 11.503906 C 3.339844 11.675781 3.480469 11.816406 3.652344 11.816406 C 3.828125 11.816406 3.964844 11.675781 3.964844 11.503906 L 3.964844 10.480469 L 4.65625 10.480469 C 4.828125 10.480469 4.96875 10.339844 4.96875 10.167969 C 4.96875 9.992188 4.828125 9.851562 4.65625 9.851562 L 3.964844 9.851562 L 3.964844 9.144531 L 4.988281 9.144531 C 5.164062 9.144531 5.304688 9.003906 5.304688 8.832031 C 5.300781 8.65625 5.164062 8.515625 4.988281 8.515625 Z M 4.988281 8.515625 "></path>
<path style=" stroke:none;fill-rule:nonzero;fill:rgb(0%,0%,0%);fill-opacity:1;" d="M 7.453125 10.625 C 7.765625 10.421875 7.976562 10.066406 7.976562 9.664062 C 7.976562 9.03125 7.460938 8.515625 6.828125 8.515625 L 5.992188 8.515625 C 5.820312 8.515625 5.679688 8.65625 5.679688 8.832031 L 5.679688 11.503906 C 5.679688 11.675781 5.820312 11.816406 5.992188 11.816406 C 6.164062 11.816406 6.304688 11.675781 6.304688 11.503906 L 6.304688 10.8125 L 6.824219 10.8125 L 7.402344 11.675781 C 7.460938 11.765625 7.5625 11.816406 7.660156 11.816406 C 7.722656 11.816406 7.78125 11.800781 7.835938 11.761719 C 7.980469 11.667969 8.019531 11.472656 7.921875 11.328125 Z M 6.828125 10.1875 L 6.304688 10.1875 L 6.304688 9.144531 L 6.828125 9.144531 C 7.113281 9.144531 7.347656 9.378906 7.347656 9.664062 C 7.347656 9.953125 7.113281 10.1875 6.828125 10.1875 Z M 6.828125 10.1875 "></path>
<path style=" stroke:none;fill-rule:nonzero;fill:rgb(0%,0%,0%);fill-opacity:1;" d="M 10 11.191406 L 8.976562 11.191406 L 8.976562 10.480469 C 8.984375 10.480469 8.992188 10.480469 8.996094 10.480469 L 9.664062 10.480469 C 9.839844 10.480469 9.980469 10.339844 9.980469 10.167969 C 9.980469 9.992188 9.839844 9.855469 9.664062 9.855469 L 8.996094 9.855469 C 8.992188 9.855469 8.984375 9.855469 8.976562 9.855469 L 8.976562 9.144531 L 10 9.144531 C 10.171875 9.144531 10.3125 9.003906 10.3125 8.832031 C 10.3125 8.65625 10.171875 8.515625 10 8.515625 L 8.664062 8.515625 C 8.492188 8.515625 8.351562 8.65625 8.351562 8.832031 L 8.351562 11.503906 C 8.351562 11.675781 8.492188 11.816406 8.664062 11.816406 L 10 11.816406 C 10.171875 11.816406 10.3125 11.675781 10.3125 11.503906 C 10.3125 11.328125 10.171875 11.191406 10 11.191406 Z M 10 11.191406 "></path>
<path style=" stroke:none;fill-rule:nonzero;fill:rgb(0%,0%,0%);fill-opacity:1;" d="M 12.339844 11.191406 L 11.316406 11.191406 L 11.316406 10.480469 L 11.671875 10.480469 C 11.84375 10.480469 11.984375 10.339844 11.984375 10.167969 C 11.984375 9.992188 11.84375 9.855469 11.671875 9.855469 L 11.316406 9.855469 L 11.316406 9.144531 L 12.339844 9.144531 C 12.511719 9.144531 12.652344 9.003906 12.652344 8.832031 C 12.652344 8.65625 12.511719 8.515625 12.339844 8.515625 L 11.003906 8.515625 C 10.828125 8.515625 10.6875 8.65625 10.6875 8.832031 L 10.6875 11.503906 C 10.6875 11.675781 10.828125 11.816406 11.003906 11.816406 L 12.339844 11.816406 C 12.511719 11.816406 12.652344 11.675781 12.652344 11.503906 C 12.652344 11.328125 12.511719 11.191406 12.339844 11.191406 Z M 12.339844 11.191406 "></path>
</g>
</svg>