<svg version="1.1" id="Capa_1" xmlns="http://www.w3.org/2000/svg" x="0" y="0" viewBox="0 0 58.999 58.999" xml:space="preserve"><path d="M58.954 37.394c-.399-4.089-3.451-7.052-7.271-7.052-2.396 0-4.407 1.449-5.684 3.212-1.276-1.764-3.288-3.213-5.684-3.213-3.819 0-6.871 2.963-7.271 7.052-.042.267-.144 1.22.226 2.709.546 2.198 1.801 4.193 3.631 5.77L46 53.658l9.1-7.788c1.828-1.575 3.083-3.569 3.629-5.767.369-1.49.267-2.442.225-2.709zm-2.167 2.227c-.445 1.793-1.479 3.431-2.99 4.732L46 51.025l-7.795-6.67c-1.513-1.304-2.547-2.941-2.992-4.735-.302-1.214-.194-1.898-.194-1.898l.016-.105c.245-2.622 2.138-5.276 5.282-5.276 2.189 0 3.974 1.811 4.77 3.606l.913 2.06.914-2.06c.796-1.795 2.58-3.605 4.77-3.605 3.145 0 5.037 2.654 5.295 5.366.001.006.112.692-.192 1.913z"/><path d="M25.369 29.194c1.002.894 2.317 1.341 3.633 1.341 1.313 0 2.626-.446 3.625-1.337L56 8.559v17.783a1 1 0 102 0v-20c0-.008-.005-.015-.005-.023a1.002 1.002 0 00-.06-.331l-.011-.019c-.01-.026-.028-.046-.04-.071a.979.979 0 00-.151-.224 1.005 1.005 0 00-.285-.214c-.033-.017-.063-.035-.098-.048a.976.976 0 00-.35-.071H1a.985.985 0 00-.351.071c-.035.013-.065.031-.098.048a1.005 1.005 0 00-.436.438c-.012.024-.029.045-.04.07-.002.007-.008.012-.011.019-.041.108-.057.22-.06.331.001.008-.004.015-.004.023v39l.002.009c.001.107.017.214.053.319.004.013.013.022.018.034.013.034.033.062.05.094a.843.843 0 00.224.288.975.975 0 00.2.135c.034.017.064.037.1.05a.979.979 0 00.353.071h30a1 1 0 100-2H3.879c4.548-3.604 14.801-11.78 20.069-16.402l1.421 1.255zM54.356 7.341L31.299 27.702c-1.267 1.132-3.331 1.131-4.602-.003l-1.978-1.746c-.006-.007-.007-.016-.014-.023-.024-.027-.057-.039-.083-.062L3.644 7.341h50.712zM2 43.278V8.559l20.437 18.046C16.881 31.459 6.086 40.045 2 43.278z"/></svg>