<svg fill="#000" version="1.1" id="_x31_" xmlns="http://www.w3.org/2000/svg" viewBox="0 0 128 128" xml:space="preserve"><circle transform="rotate(-14.999 23.174 47.43)" cx="23.2" cy="47.4" r="7.8"/><path d="M37.4 97.5H27c-4.3-.4-8-3.5-9.1-7.8l-6.5-24.2c-.4-1.4-1.8-2.1-3-1.8-1.4.4-2.1 1.8-1.8 3L13 90.9c1.7 6.3 7 10.9 13.5 11.4.6.1 1.3.1 1.3.1h9.5c1.4 0 2.4-1.1 2.5-2.5 0-1.4-1-2.4-2.4-2.4z"/><path d="M48.6 83.9h-13c-.3-4.9-1.1-9.8-2.3-14.7-.1-.4-.4-1.4-.4-1.5-1.7-6.3-7.7-10.3-14-9.7 0 0-.8.1-1 .1-2.3.6-3.7 3-3.1 5.4l6.7 24.9c.7 2.8 3.1 4.9 6.1 5.1h16.1v17.8c0 2.7 2.1 4.9 4.9 4.9 2.7 0 4.9-2.1 4.9-4.9V88.8c0-1.3-.5-2.5-1.5-3.4-.9-1-2.2-1.5-3.4-1.5z"/><circle transform="rotate(-75.001 104.436 47.43)" cx="104.4" cy="47.4" r="7.8"/><path d="M90.2 97.5h10.4c4.3-.4 8-3.5 9.1-7.8l6.5-24.2c.4-1.4 1.8-2.1 3-1.8 1.4.4 2.1 1.8 1.8 3l-6.4 24.2c-1.7 6.3-7 10.9-13.5 11.4-.6.1-1.3.1-1.3.1h-9.5c-1.4 0-2.4-1.1-2.5-2.5 0-1.4 1.1-2.4 2.4-2.4z"/><path d="M79 83.9h13c.3-4.9 1.1-9.8 2.3-14.7.1-.4.4-1.4.4-1.5 1.7-6.3 7.7-10.3 14-9.7 0 0 .8.1 1 .1 2.3.6 3.7 3 3.1 5.4L106 88.4c-.7 2.8-3.1 4.9-6.1 5.1h-16v17.8c0 2.7-2.1 4.9-4.9 4.9s-4.9-2.1-4.9-4.9V88.8c0-1.3.5-2.5 1.5-3.4.9-1 2.2-1.5 3.4-1.5z"/><path d="M38.8 70.8h50.6v6H38.8z"/><circle cx="64.1" cy="43.2" r="7.2"/><path d="M52.5 67.9v-4.3h-.1c0-.5.4-.9.9-.9s.9.4.9.9v4.3h19.9v-4.3H74c0-.5.4-.9.9-.9s.9.4.9.9v4.3H82v-6.1c0-5-4-9-9-9H55c-5 0-9 4-9 9v6.1h6.5z"/></svg>