<svg xmlns="http://www.w3.org/2000/svg" version="1.1" id="Capa_1" x="0" y="0" viewBox="0 0 385.272 385.272" xml:space="preserve" class="svg replaced-svg"><path d="M351.623 149.347a171.52 171.52 0 00-94.627-94.627h-.72a57.044 57.044 0 002.56-10.24 36.32 36.32 0 00-10.56-33.12A38.16 38.16 0 00222.116 0a44.24 44.24 0 00-29.84 13.52A44.238 44.238 0 00162.756.08a38.159 38.159 0 00-26.48 11.28 36.318 36.318 0 00-11.2 33.04 57.404 57.404 0 003.2 10.32C40.47 90.265-1.896 190.261 33.649 278.067c35.545 87.806 135.541 130.172 223.347 94.627s130.172-135.541 94.627-223.347zM147.476 23.12l-.32-.4a22.721 22.721 0 0115.28-7.04c12.64 0 22.96 13.92 23.04 14.08a7.998 7.998 0 006.48 3.36 8.001 8.001 0 006.48-3.28s10.4-14.08 23.04-14.08a22.477 22.477 0 0115.28 7.04 20.48 20.48 0 016.24 19.12c-2.72 21.84-28.32 50-50.72 62.64-22.4-12.88-48-40.96-51.04-62.48a20.48 20.48 0 016.24-18.96zm77.68 75.92c63.089 18.336 99.369 84.344 81.033 147.433s-84.344 99.369-147.433 81.033-99.369-84.344-81.033-147.433a118.957 118.957 0 0181.033-81.033 133.344 133.344 0 0029.92 21.52 8 8 0 007.2 0 133.378 133.378 0 0029.6-21.12l-.32-.4zm111.586 172.175c-23.563 59.139-80.805 97.932-144.465 97.905-85.847.08-155.505-69.447-155.585-155.294-.06-63.69 38.739-120.972 97.905-144.546a121.026 121.026 0 0012.24 17.2C76.644 111.554 40.068 188.782 65.142 258.975s102.302 106.768 172.495 81.695 106.768-102.302 81.695-172.495a134.96 134.96 0 00-81.695-81.695 121.933 121.933 0 0012.24-17.2c79.749 31.775 118.64 122.185 86.865 201.935z"/></svg>