<svg width="48" height="48" xmlns="http://www.w3.org/2000/svg"><g id="🔍-Product-Icons" stroke="none" stroke-width="1" fill="none" fill-rule="evenodd"><g id="ic_fluent_share_ios_48_regular" fill="#212121" fill-rule="nonzero"><path d="M37.75 20.75c.647 0 1.18.492 1.244 1.122L39 22v14.75a5.25 5.25 0 01-5.034 5.246L33.75 42h-19.5a5.25 5.25 0 01-5.246-5.034L9 36.75V22a1.25 1.25 0 012.494-.128L11.5 22v14.75a2.75 2.75 0 002.582 2.745l.168.005h19.5a2.75 2.75 0 002.745-2.582l.005-.168V22c0-.69.56-1.25 1.25-1.25zm-22.66-6.606l7.779-7.778a1.25 1.25 0 011.666-.091l.101.091 7.778 7.778a1.25 1.25 0 01-1.666 1.86l-.101-.092L25 10.265V30.5a1.25 1.25 0 01-1.122 1.244l-.128.006a1.25 1.25 0 01-1.244-1.122L22.5 30.5V10.269l-5.642 5.643a1.25 1.25 0 01-1.666.091l-.102-.09a1.25 1.25 0 01-.09-1.667l.09-.102 7.779-7.778-7.779 7.778z" id="🎨-Color"/></g></g></svg>