<svg xmlns="http://www.w3.org/2000/svg" version="1.1" id="Layer_1" x="0" y="0" viewBox="0 0 512 512" xml:space="preserve" class="svg replaced-svg"><path d="M469.333 51.2h-76.8c-4.719 0-8.533 3.823-8.533 8.533s3.814 8.533 8.533 8.533h76.8c14.114 0 25.6 11.486 25.6 25.6V204.8h-68.275a8.53 8.53 0 00-8.533 8.533 8.53 8.53 0 008.533 8.533h68.275v247.467c0 14.114-11.486 25.6-25.6 25.6H42.667c-14.114 0-25.6-11.486-25.6-25.6V221.875l68.258.06h.008c4.71 0 8.525-3.814 8.533-8.525.008-4.71-3.814-8.533-8.525-8.542l-68.275-.06V93.867c0-14.114 11.486-25.6 25.6-25.6h76.8c4.719 0 8.533-3.823 8.533-8.533s-3.814-8.533-8.533-8.533h-76.8C19.14 51.2 0 70.34 0 93.867v375.467C0 492.86 19.14 512 42.667 512h426.667C492.86 512 512 492.86 512 469.333V93.867C512 70.34 492.86 51.2 469.333 51.2z"/><path d="M51.2 375.467V256h25.6c4.719 0 8.533-3.823 8.533-8.533s-3.814-8.533-8.533-8.533H42.667a8.53 8.53 0 00-8.533 8.533V384a8.53 8.53 0 008.533 8.533h426.667a8.53 8.53 0 008.533-8.533V247.467a8.53 8.53 0 00-8.533-8.533H435.2c-4.719 0-8.533 3.823-8.533 8.533S430.481 256 435.2 256h25.6v119.467H51.2z"/><path d="M343.134 129.485a8.534 8.534 0 00-11.878 2.176c-2.671 3.883-1.698 9.199 2.176 11.87 37.009 25.532 59.102 67.575 59.102 112.469 0 31.019-10.769 61.133-30.208 85.333H339.44c22.869-22.229 36.028-52.685 36.028-85.333 0-44.604-24.567-85.18-64.111-105.89a8.516 8.516 0 00-11.511 3.593 8.524 8.524 0 003.601 11.52C337.34 182.989 358.4 217.771 358.4 256c0 34.586-17.271 66.261-46.182 85.333H199.782C170.871 322.261 153.6 290.586 153.6 256c0-38.204 21.043-72.977 54.921-90.743 4.164-2.193 5.777-7.347 3.593-11.52-2.185-4.164-7.339-5.786-11.529-3.601-39.51 20.727-64.052 61.294-64.052 105.864 0 32.649 13.158 63.104 36.028 85.333h-22.886c-19.439-24.201-30.208-54.315-30.208-85.333 0-44.877 22.084-86.912 59.068-112.452 3.874-2.671 4.847-7.987 2.176-11.87-2.688-3.874-8.004-4.855-11.878-2.167C127.232 158.225 102.4 205.517 102.4 256c0 30.473 9.25 60.16 26.129 85.333H93.867c-4.719 0-8.533 3.823-8.533 8.533s3.814 8.533 8.533 8.533h324.267c4.719 0 8.533-3.823 8.533-8.533s-3.814-8.533-8.533-8.533H383.48c16.87-25.173 26.12-54.86 26.12-85.333 0-50.5-24.849-97.801-66.466-126.515z"/><path d="M249.967 168.166a8.477 8.477 0 006.033 2.5 8.475 8.475 0 006.033-2.5l102.4-102.4c3.337-3.328 3.337-8.73 0-12.066l-51.2-51.2A8.535 8.535 0 00307.2 0H204.8c-2.27 0-4.429.905-6.033 2.5l-51.2 51.2c-3.337 3.337-3.337 8.738 0 12.066l102.4 102.4zM256 132.983l-29.414-64.717h58.829L256 132.983zM208.333 17.067h95.334l42.667 42.667-70.212 70.212 28.041-61.679h11.571c4.719 0 8.533-3.823 8.533-8.533s-3.814-8.533-8.533-8.533H304.82l-6.596-19.763a8.499 8.499 0 00-10.786-5.402c-4.471 1.493-6.886 6.332-5.393 10.803l4.779 14.362h-61.645l4.779-14.362c1.493-4.471-.922-9.31-5.393-10.803-4.497-1.502-9.293.93-10.786 5.402L207.181 51.2h-10.914c-4.719 0-8.533 3.823-8.533 8.533s3.814 8.533 8.533 8.533h11.58l28.032 61.679-70.212-70.212 42.666-42.666z"/></svg>