<svg class="contact-buttons__checkbox-image contact-buttons__checkbox-image__open" width="34" height="21" fill="none" xmlns="http://www.w3.org/2000/svg"><path d="M24.09 18.417a7.917 7.917 0 100-15.833 7.917 7.917 0 000 15.833z" fill="#5A49FF"/><path fill-rule="evenodd" clip-rule="evenodd" d="M33.606 10.5a9.517 9.517 0 01-9.517 9.517 9.517 9.517 0 110-19.034 9.517 9.517 0 019.517 9.517zm-1.6 0a7.917 7.917 0 11-15.833 0 7.917 7.917 0 0115.833 0z" fill="#fff"/><path d="M28.04 7.225c.07-.455-.363-.815-.767-.637l-8.067 3.541c-.29.128-.269.568.032.664l1.664.53c.317.1.661.048.938-.143l3.75-2.591c.114-.078.237.082.14.182l-2.7 2.783a.606.606 0 00.106.925l3.022 1.896c.34.212.775-.001.839-.411l1.043-6.739z" fill="#fff"/><path d="M18.208 10.5A8.708 8.708 0 014.56 17.672l-2.977.744.78-2.925A8.708 8.708 0 1118.208 10.5z" fill="#5A49FF"/><path fill-rule="evenodd" clip-rule="evenodd" d="M9.5 20a9.5 9.5 0 10-8.266-4.815L0 20l4.964-1.151A9.457 9.457 0 009.5 20zm0-1.462a8.038 8.038 0 10-6.588-3.43l-.72 2.7 2.748-.687a8.001 8.001 0 004.56 1.418z" fill="#fff"/><path d="M6.775 6.182c-.252-.473-.64-.431-1.03-.431-.698 0-1.787.78-1.787 2.233 0 1.19.562 2.494 2.456 4.444 1.828 1.881 4.23 2.854 6.224 2.821 1.994-.033 2.404-1.634 2.404-2.175 0-.24-.16-.36-.27-.392-.679-.304-1.932-.872-2.217-.978-.285-.107-.434.038-.527.116-.258.23-.77.908-.946 1.06-.176.153-.437.075-.546.018-.401-.15-1.487-.601-2.353-1.385-1.071-.969-1.134-1.302-1.336-1.599-.161-.237-.043-.383.016-.447.231-.248.55-.632.693-.822.142-.191.029-.48-.04-.66-.292-.776-.54-1.425-.741-1.803z" fill="#fff"/></svg>